<svg width="95" height="93" viewBox="0 0 95 93" fill="none" xmlns="http://www.w3.org/2000/svg">
<path d="M82.4886 29.8678L74.605 34.874L70.7711 28.7989L78.6547 23.7927L82.4886 29.8678ZM59.3436 10.2429L57.0017 20.6652L49.9079 19.0712L52.2498 8.64896L59.3436 10.2429ZM74.4452 57.9515L76.0436 50.8379L86.6018 53.2103L85.0034 60.3239L74.4452 57.9515ZM32.3687 63.9638C29.6005 61.3722 27.6134 58.261 26.4074 54.6302C25.2015 50.9993 25.0321 47.2539 25.8995 43.3938C27.2129 37.5485 30.3964 33.0213 35.45 29.8122C40.5036 26.6031 45.9449 25.6535 51.7739 26.9632C57.6029 28.273 62.1148 31.4592 65.3098 36.5217C68.5048 41.5842 69.4455 47.0381 68.1321 52.8834C67.2647 56.7435 65.5369 60.0627 62.9485 62.8409C60.3602 65.6192 57.2057 67.5751 53.4849 68.7086L49.6562 85.7481L28.5399 81.0033L32.3687 63.9638ZM18.1901 45.311L7.63195 42.9385L9.23037 35.8249L19.7885 38.1974L18.1901 45.311ZM33.9825 20.5325L27.9554 24.218L22.9341 16.4859L28.9984 12.635L33.9825 20.5325Z" fill="black"/>
</svg>
