<svg xmlns="http://www.w3.org/2000/svg" viewBox="0 0 1856.68 1960.17"><defs><style>.cls-1{fill:#a3a7c4;}.cls-2{fill:#1e9f78;}.cls-3{fill:#234c62;}.cls-4{fill:#fec85b;}</style></defs><g id="Layer_5" data-name="Layer 5"><path class="cls-1" d="M1014.84,1731.48c5.44-.51,10.89-1.08,16.3-1.71Q1023,1730.72,1014.84,1731.48Z"/><path class="cls-2" d="M1478.34,1220.37v325.7c-2.45,1.92-4.89,3.8-7.35,5.69-1.93,1.49-3.87,3-5.81,4.42s-3.85,2.9-5.79,4.33c-1.39,1-2.8,2.07-4.2,3.11q-3.24,2.39-6.52,4.72c-2,1.45-4,2.9-6.07,4.33q-11.74,8.31-23.78,16.23l-6.29,4.1-2.18,1.41c-1.95,1.26-3.9,2.51-5.86,3.73q-7.15,4.53-14.41,8.92c-1.11.69-2.24,1.36-3.35,2q-7.39,4.44-14.89,8.73c-2,1.16-4.06,2.32-6.09,3.46-3,1.69-6,3.34-9,5-2.13,1.17-4.28,2.34-6.44,3.48q-4.35,2.37-8.73,4.63c-2.21,1.17-4.44,2.32-6.67,3.46-.81.43-1.61.84-2.43,1.24q-4.15,2.13-8.33,4.19c-2,1-4.09,2-6.14,3l-1.68.81q-20.5,9.93-41.62,18.82-3.75,1.59-7.55,3.13c-2.27.94-4.56,1.87-6.84,2.79l-2.39.94c-2.58,1-5.19,2.06-7.79,3.06q-4.28,1.67-8.58,3.27-8.6,3.21-17.28,6.27c-5.79,2-11.6,4-17.45,5.93q-4.36,1.44-8.79,2.83t-8.81,2.75q-4.42,1.35-8.86,2.65c-3,.86-5.93,1.72-8.91,2.56s-5.94,1.67-8.93,2.47c-2.6.72-5.21,1.4-7.81,2.09-.55.14-1.07.29-1.6.41q-4.29,1.13-8.58,2.18c-3,.75-6,1.48-9,2.2-2.8.67-5.6,1.33-8.42,2-.43.1-.84.2-1.27.28q-4.24,1-8.52,1.89c-2.48.54-5,1.07-7.49,1.57-1.14.26-2.3.48-3.45.71-2.55.53-5.11,1-7.68,1.53-3,.57-6,1.13-8.94,1.67-1.17.22-2.35.43-3.53.63v-371.1H769.92v371l-3.17-.55c-3.07-.58-6.16-1.15-9.23-1.75s-6.13-1.21-9.19-1.83-6.11-1.27-9.17-1.93-6.09-1.34-9.13-2q-9.12-2.07-18.15-4.32c-3-.76-6-1.51-9-2.3l-9-2.39c-3-.81-6-1.64-8.94-2.48s-5.94-1.7-8.92-2.58-5.91-1.75-8.86-2.65q-8.74-2.68-17.42-5.52l-.5-.17q-8.61-2.83-17.17-5.85c-2.9-1-5.79-2-8.68-3.1a.24.24,0,0,0-.1,0c-2.73-1-5.44-2-8.16-3-.21-.08-.42-.15-.65-.25-2.78-1-5.53-2.08-8.31-3.16a1.69,1.69,0,0,0-.27-.1c-2.61-1-5.21-2-7.83-3.08q-4.71-1.87-9.4-3.8-3.9-1.61-7.79-3.26l-.61-.26c-2.67-1.14-5.35-2.28-8-3.44l-.62-.27c-2.59-1.13-5.18-2.28-7.75-3.43s-5.06-2.28-7.59-3.45c-.51-.23-1-.45-1.53-.7l-7.13-3.31c-3.18-1.52-6.37-3-9.54-4.59l-5.42-2.66c-1.38-.68-2.77-1.37-4.14-2.07-1.95-1-3.87-1.94-5.8-2.94-2.7-1.37-5.41-2.78-8.09-4.19-2.3-1.2-4.6-2.42-6.89-3.64-3.49-1.86-6.94-3.75-10.39-5.65-2.21-1.23-4.43-2.46-6.63-3.7q-4.2-2.36-8.36-4.79c-2.36-1.34-4.7-2.71-7-4.1l-.4-.24c-2.62-1.53-5.2-3.09-7.79-4.66s-5.17-3.14-7.75-4.73-5.13-3.19-7.68-4.81-5.1-3.25-7.63-4.88-4.76-3.1-7.12-4.66q-10.74-7.1-21.25-14.49c-1.4-1-2.77-2-4.16-2.94l-1.7-1.21c-1.26-.89-2.51-1.8-3.76-2.7l-4.77-3.48-3.86-2.83q-5.19-3.86-10.31-7.77c-1.32-1-2.63-2-3.93-3l-5.41-4.21V1219.87L723.93,949.52,928.11,790Z"/><polygon class="cls-3" points="1642.78 787.65 1642.78 1018.85 1479.07 891.04 1165.39 646.17 928.11 460.94 690.89 646.17 378.54 890.07 213.92 1018.61 213.92 786.55 378.54 657.98 393.65 646.17 928.11 228.71 1461.88 646.17 1479.07 659.62 1642.78 787.65"/><polygon class="cls-4" points="1642.78 1068.32 1642.78 1299.52 1478.34 1171.14 928.11 741.6 377.81 1171.29 213.92 1299.27 213.92 1067.22 377.81 939.21 928.11 509.38 1478.34 939.71 1642.78 1068.32"/><path class="cls-3" d="M1817.25,923.91A888.85,888.85,0,0,1,1776,1123.38L1327,772.3,928.08,460.43,815.64,372.5,928,228.82l.1-.13,0,0Z"/><path class="cls-3" d="M1040.53,372.5,928.08,460.43,404.29,870,80.63,1123a888.59,888.59,0,0,1-41.2-199.53l174.5-136.44L864.37,278.52l63.71-49.83,0,0Z"/><path class="cls-4" d="M1762.32,1161.66a887.9,887.9,0,0,1-84.24,165.87l-370.93-290L928.08,741.12,815.64,653.19,928,509.44l0-.06,0,0,102,79.76Z"/><path class="cls-4" d="M1040.53,653.19,928.08,741.12,438.53,1123.88,178.44,1327.24a887.62,887.62,0,0,1-84.18-165.9l119.67-93.57L899.78,531.52l28.3-22.14,0,0Z"/><path class="cls-2" d="M1656.13,1359.86a897.24,897.24,0,0,1-177.79,186.21c-2.45,1.92-4.89,3.8-7.35,5.69-1.93,1.49-3.87,3-5.81,4.42s-3.85,2.9-5.79,4.33c-1.39,1-2.8,2.07-4.2,3.11q-3.24,2.39-6.52,4.72c-2,1.45-4,2.9-6.07,4.33q-11.74,8.31-23.78,16.23l-6.29,4.1-2.18,1.41c-1.95,1.26-3.9,2.51-5.86,3.73q-7.15,4.53-14.41,8.92c-1.11.69-2.24,1.36-3.35,2q-7.39,4.44-14.89,8.73c-2,1.16-4.06,2.32-6.09,3.46-3,1.69-6,3.34-9,5-2.13,1.17-4.28,2.34-6.44,3.48q-4.35,2.37-8.73,4.63c-2.21,1.17-4.44,2.32-6.67,3.46-.81.43-1.61.84-2.43,1.24q-4.15,2.13-8.33,4.19c-2,1-4.09,2-6.14,3l-1.68.81-230.13-271v-25.54h-21.69L927.65,1189.42,723.93,949.52,928.11,790l550.23,430.67Z"/><path class="cls-2" d="M1131.94,950,927.65,1189.42,790.14,1350.59H769.92v23.69L538.09,1646l-5.42-2.66c-1.38-.68-2.77-1.37-4.14-2.07-1.95-1-3.87-1.94-5.8-2.94-2.7-1.37-5.41-2.78-8.09-4.19-2.3-1.2-4.6-2.42-6.89-3.64-3.49-1.86-6.94-3.75-10.39-5.65-2.21-1.23-4.43-2.46-6.63-3.7q-4.2-2.36-8.36-4.79c-2.36-1.34-4.7-2.71-7-4.1l-.4-.24c-2.62-1.53-5.2-3.09-7.79-4.66s-5.17-3.14-7.75-4.73-5.13-3.2-7.68-4.81-5.1-3.25-7.63-4.88-4.76-3.1-7.12-4.66q-10.74-7.1-21.25-14.49c-1.4-1-2.77-2-4.16-2.94l-1.7-1.21c-1.26-.89-2.51-1.8-3.76-2.7l-4.77-3.48-3.86-2.83q-5.19-3.86-10.31-7.77c-1.32-1-2.63-2-3.93-3l-5.41-4.21a897.85,897.85,0,0,1-178.63-187.75L928.11,790Z"/></g></svg>